<svg width="16" height="16" viewBox="0 0 16 16" fill="none" xmlns="http://www.w3.org/2000/svg">
<circle cx="8" cy="8" r="8" fill="#2D9CDB"/>
<path d="M13.2842 7.19934L13.2841 7.19937L11.8224 8.26145L11.8224 8.26147L10.3877 9.30372L10.7901 10.542L10.7902 10.542L11.4941 12.7086L11.4941 12.7087C11.6101 13.0663 11.2008 13.3642 10.8963 13.1427M13.2842 7.19934L10.8963 13.1427M13.2842 7.19934C13.5883 6.97823 13.4321 6.49676 13.0558 6.49676H9.47571L8.3694 3.09192C8.36939 3.0919 8.36939 3.09189 8.36938 3.09187C8.25318 2.73413 7.74692 2.73392 7.63069 3.09187C7.63068 3.0919 7.63067 3.09194 7.63066 3.09197L6.52436 6.49676H2.94426C2.56794 6.49676 2.41176 6.97823 2.71591 7.19934L2.71596 7.19938L4.14396 8.23694L4.14397 8.23695L5.61235 9.30373L5.14976 10.7275L5.14976 10.7275L4.50602 12.7086L4.50598 12.7087C4.38996 13.0663 4.79918 13.3641 5.10368 13.1428C5.10371 13.1428 5.10375 13.1427 5.10378 13.1427L6.65581 12.0152L6.65583 12.0151L8.00004 11.0384M13.2842 7.19934L8.00004 11.0384M10.8963 13.1427L9.5123 12.1373L9.51227 12.1373L8.00004 11.0384M10.8963 13.1427L8.00004 11.0384M5.63741 9.2266L5.63735 9.22676C5.63738 9.22668 5.6374 9.22661 5.63742 9.22654L5.63741 9.2266Z" fill="white" stroke="#2D9CDB" stroke-width="0.5" stroke-linecap="round" stroke-linejoin="round"/>
</svg>
